<svg width="16" height="16" viewBox="0 0 16 16" fill="none" xmlns="http://www.w3.org/2000/svg">
<path d="M11.3335 1.33337H4.66683C2.82588 1.33337 1.3335 2.82576 1.3335 4.66671V11.3334C1.3335 13.1743 2.82588 14.6667 4.66683 14.6667H11.3335C13.1744 14.6667 14.6668 13.1743 14.6668 11.3334V4.66671C14.6668 2.82576 13.1744 1.33337 11.3335 1.33337Z" stroke="white" stroke-linecap="round" stroke-linejoin="round"/>
<path d="M10.6668 7.58008C10.7491 8.13491 10.6543 8.70156 10.396 9.19942C10.1376 9.69729 9.72889 10.101 9.22788 10.3532C8.72687 10.6054 8.15909 10.6931 7.60532 10.604C7.05155 10.5149 6.53997 10.2535 6.14336 9.85685C5.74674 9.46024 5.48528 8.94866 5.39618 8.39489C5.30707 7.84111 5.39484 7.27334 5.64701 6.77233C5.89919 6.27131 6.30292 5.86257 6.80079 5.60424C7.29865 5.34591 7.8653 5.25114 8.42013 5.33341C8.98608 5.41734 9.51003 5.68105 9.91459 6.08562C10.3192 6.49018 10.5829 7.01413 10.6668 7.58008Z" stroke="white" stroke-linecap="round" stroke-linejoin="round"/>
<path d="M11.6665 4.33337H11.674" stroke="white" stroke-linecap="round" stroke-linejoin="round"/>
</svg>
